# xmcd CD database file
#
# Track frame offsets:
#	150
#	14298
#	27921
#	41769
#	57867
#	74865
#	88113
#	100536
#	118809
#	129732
#	142980
#	154353
#
# Disc length: 2266 seconds
#
# Revision: 0
# Processed by: cddbd v1.5.2PL0 Copyright (c) Steve Scherf et al.
# Submitted via: CDex 1.51
#
DISCID=aa08d80c
DTITLE=Eartha Kitt - Legends
DYEAR=2010
DGENRE=Blues
TTITLE0=Let's Do It
TTITLE1=C'est Si Bon
TTITLE2=My Heart Belongs To Daddy
TTITLE3=I Want To Be Evil
TTITLE4=Monotonous
TTITLE5=Lullaby Of Birdland
TTITLE6=Under The Bridges Of Paris
TTITLE7=Thursday's Child
TTITLE8=Lazy Afternoon
TTITLE9=April In Portugal
TTITLE10=If I Can't Take It With Me (When I Go)
TTITLE11=Santa Baby
EXTD=YEAR: 2010
EXTT0=
EXTT1=
EXTT2=
EXTT3=
EXTT4=
EXTT5=
EXTT6=
EXTT7=
EXTT8=
EXTT9=
EXTT10=
EXTT11=
PLAYORDER=
